<?xml version="1.0" encoding="UTF-8" standalone="no"?>
<!-- Created with Inkscape (http://www.inkscape.org/) -->

<svg
   xmlns:dc="http://purl.org/dc/elements/1.1/"
   xmlns:cc="http://creativecommons.org/ns#"
   xmlns:rdf="http://www.w3.org/1999/02/22-rdf-syntax-ns#"
   xmlns:svg="http://www.w3.org/2000/svg"
   xmlns="http://www.w3.org/2000/svg"
   version="1.1"
   width="100.038"
   height="37.861"
   viewBox="0 0 100.038 37.861"
   id="レイヤー_1"
   xml:space="preserve"><metadata
   id="metadata53" /><defs
   id="defs51" />
<rect
   width="100.038"
   height="37.861"
   x="0"
   y="0"
   id="rect3" />
<polygon
   points="49.158,6.506 39.537,6.506 39.537,20.346 49.158,20.346 49.158,18.038 41.844,18.038 41.844,14.579 48.807,14.579 48.807,12.272 41.844,12.272 41.844,8.812 49.158,8.812 "
   id="polygon5"
   style="fill:#ffffff" />
<polygon
   points="56.297,6.507 58.604,6.507 58.604,18.038 65.258,18.038 65.258,20.346 56.297,20.346 "
   id="polygon7"
   style="fill:#ffffff" />
<polygon
   points="67.139,6.507 69.446,6.507 69.446,18.038 76.1,18.038 76.1,20.346 67.139,20.346 "
   id="polygon9"
   style="fill:#ffffff" />
<rect
   width="2.306"
   height="13.839"
   x="51.580002"
   y="6.507"
   id="rect11"
   style="fill:#ffffff" />
<path
   d="m 10.737,10.022 c -0.888,0.892 -1.434,2.109 -1.436,3.467 10e-4,1.357 0.548,2.575 1.436,3.465 0.891,0.888 2.109,1.436 3.467,1.436 1.356,0 2.574,-0.548 3.465,-1.436 0.889,-0.891 1.435,-2.108 1.435,-3.465 0,-1.358 -0.546,-2.575 -1.435,-3.467 C 16.778,9.134 15.561,8.589 14.204,8.588 12.846,8.589 11.627,9.135 10.737,10.022 M 6.996,13.49 c 0,-3.982 3.226,-7.208 7.208,-7.209 3.98,0.001 7.206,3.227 7.207,7.209 -0.001,3.98 -3.227,7.207 -7.207,7.208 C 10.222,20.697 6.996,17.47 6.996,13.49"
   id="path13"
   style="fill:#ffffff" />
<path
   d="m 28.541,12.272 v -3.46 h 4.646 c 0.955,0.001 1.729,0.774 1.73,1.73 -0.001,0.955 -0.775,1.728 -1.73,1.73 h -4.646 z m 5.804,2.136 c 1.664,-0.5 2.878,-2.038 2.879,-3.866 C 37.223,8.313 35.417,6.507 33.187,6.506 h -6.953 v 13.839 h 2.307 V 14.58 h 3.213 l 3.48,5.767 h 2.69 l -3.579,-5.939 z"
   id="path15"
   style="fill:#ffffff" />
<path
   d="m 24.599,7.98 c 0,0.937 -0.76,1.698 -1.697,1.698 -0.939,0 -1.699,-0.761 -1.699,-1.698 0,-0.938 0.76,-1.699 1.699,-1.699 0.937,0 1.697,0.761 1.697,1.699"
   id="path17"
   style="fill:#ffffff" />
<polygon
   points="83.579,6.507 80.03,11.645 76.479,6.507 73.676,6.507 78.874,14.031 78.874,20.346 81.181,20.346 81.181,14.036 86.382,6.507 "
   id="polygon19"
   style="fill:#ffffff" />
<g
   id="g21">
	<path
   d="m 90.502,10.736 c -1.119,0 -2.029,-0.909 -2.029,-2.026 0,-1.125 0.91,-2.033 2.029,-2.033 1.119,0 2.029,0.908 2.029,2.033 10e-4,1.117 -0.909,2.026 -2.029,2.026 m 0,-4.444 c -1.332,0 -2.416,1.081 -2.416,2.418 0,1.33 1.084,2.411 2.416,2.411 1.334,0 2.416,-1.081 2.416,-2.411 0,-1.337 -1.082,-2.418 -2.416,-2.418"
   id="path23"
   style="fill:#ffffff" />
	<path
   d="m 89.918,7.868 h 0.951 c 0.172,0 0.307,0.139 0.307,0.309 0,0.17 -0.135,0.307 -0.307,0.307 H 89.918 V 7.868 z m 1.668,0.309 c 0,-0.398 -0.32,-0.721 -0.717,-0.721 H 89.508 V 9.92 h 0.41 V 8.896 h 0.689 l 0.494,1.024 h 0.455 L 91.052,8.871 c 0.31,-0.08 0.534,-0.36 0.534,-0.694"
   id="path25"
   style="fill:#ffffff" />
</g>
<g
   id="g27">
	<path
   d="m 7.004,29.56 c 1.351,-0.631 2.674,-1.422 4.367,-3.682 H 7.383 v -0.964 h 4.249 v -1.458 h 0.981 v 1.458 h 2.26 v 0.964 h -2.26 V 30.1 c 0,1.081 -0.801,1.081 -1.548,1.081 -0.459,0 -0.765,-0.019 -1.008,-0.037 L 9.94,30.164 c 0.378,0.027 0.864,0.054 1.278,0.054 0.108,0 0.414,0 0.414,-0.351 V 27.049 C 10.57,28.453 9.165,29.543 7.626,30.38 L 7.004,29.56 z"
   id="path29"
   style="fill:#ffffff" />
	<path
   d="m 23.279,25.932 c -0.216,1.872 -0.567,4.808 -5.87,5.32 L 17.13,30.315 c 0.513,-0.018 2.017,-0.08 3.367,-0.908 1.197,-0.738 1.467,-1.9 1.593,-2.513 h -6.095 v -0.963 h 7.284 z m -0.468,-2.134 v 0.954 h -6.167 v -0.954 h 6.167 z"
   id="path31"
   style="fill:#ffffff" />
	<path
   d="M 28.921,31.289 H 27.85 V 27.21 c -1.026,0.684 -2.161,1.188 -3.331,1.575 l -0.513,-0.864 c 1.215,-0.396 3.889,-1.278 6.5,-4.438 l 0.973,0.594 c -0.351,0.359 -1.306,1.368 -2.557,2.367 v 4.845 z"
   id="path33"
   style="fill:#ffffff" />
	<path
   d="m 33.987,28.705 h -1.044 v -4.889 h 1.044 v 4.889 z m 4.547,-1.629 c 0,3.601 -2.143,4.015 -4.78,4.294 l -0.333,-0.99 c 1.306,-0.081 2.17,-0.234 2.953,-0.63 1.044,-0.531 1.098,-1.855 1.098,-2.197 v -3.898 h 1.062 v 3.421 z"
   id="path35"
   style="fill:#ffffff" />
	<path
   d="m 48.371,26.751 v 1.089 h -7.995 v -1.089 h 7.995 z"
   id="path37"
   style="fill:#ffffff" />
	<path
   d="m 52.321,27.355 c 0,0.521 -0.414,0.936 -0.936,0.936 -0.522,0 -0.945,-0.414 -0.936,-0.936 0,-0.523 0.423,-0.938 0.936,-0.938 0.513,0 0.936,0.415 0.936,0.938 z"
   id="path39"
   style="fill:#ffffff" />
	<path
   d="m 56.686,27.787 c -1.054,-0.576 -2.143,-0.928 -2.521,-1.045 l 0.405,-0.936 c 0.136,0.035 1.62,0.459 2.538,0.963 l -0.422,1.018 z m -2.008,2.223 c 3.402,-0.279 4.951,-1.359 6.104,-4.897 l 0.973,0.432 c -1.207,3.377 -2.746,5.096 -6.824,5.546 L 54.678,30.01 z m 2.709,-4.312 C 56.434,25.22 55.578,24.924 54.875,24.717 l 0.433,-0.945 c 1.359,0.405 2.034,0.711 2.538,0.945 l -0.459,0.981 z m 2.738,-0.892 c -0.126,-0.611 -0.243,-0.972 -0.423,-1.449 l 0.738,-0.162 c 0.225,0.541 0.306,0.774 0.459,1.432 l -0.774,0.179 z m 1.314,-0.188 C 61.232,23.807 61.061,23.438 60.971,23.24 L 61.7,23.078 c 0.252,0.522 0.424,1.117 0.486,1.333 l -0.747,0.207 z"
   id="path41"
   style="fill:#ffffff" />
	<path
   d="m 64.02,25.185 0.918,-0.108 0.234,1.404 3.637,-0.522 c -0.09,1.747 -0.701,2.639 -1.845,3.422 l -0.64,-0.631 c 0.873,-0.594 1.144,-0.973 1.324,-1.773 l -2.323,0.36 0.657,3.907 -0.962,0.126 -0.631,-3.89 -1.729,0.271 -0.135,-0.892 1.729,-0.252 -0.234,-1.422 z"
   id="path43"
   style="fill:#ffffff" />
	<path
   d="m 69.33,30.443 c 1.404,-1.521 1.846,-3.962 1.98,-6.438 l 1.026,0.081 c -0.288,4.087 -1.107,5.753 -2.16,7.076 L 69.33,30.443 z m 6.049,-6.465 c 0.18,2.08 0.711,4.502 2.232,6.473 l -0.918,0.712 c -1.485,-1.899 -2.098,-4.591 -2.296,-7.067 l 0.982,-0.118 z m 2.485,0.019 c 0,0.522 -0.423,0.937 -0.936,0.937 -0.522,0 -0.937,-0.414 -0.937,-0.937 0,-0.523 0.423,-0.937 0.937,-0.937 0.513,0 0.936,0.414 0.936,0.937 z m -1.368,0 c 0,0.243 0.188,0.433 0.433,0.433 0.234,0 0.432,-0.189 0.432,-0.433 0,-0.244 -0.197,-0.433 -0.432,-0.433 -0.235,0 -0.433,0.189 -0.433,0.433 z"
   id="path45"
   style="fill:#ffffff" />
	<path
   d="M 81.444,26.203 C 80.77,25.707 79.653,25.158 78.725,24.879 l 0.486,-0.882 c 0.793,0.226 1.576,0.485 2.791,1.233 l -0.558,0.973 z m -2.628,3.716 c 3.366,-0.242 5.32,-1.539 6.571,-5.365 l 1.018,0.459 c -1.323,3.845 -3.268,5.547 -7.256,6.041 l -0.333,-1.135 z"
   id="path47"
   style="fill:#ffffff" />
</g>
</svg>
