<!-- Generator: Adobe Illustrator 16.2.1, SVG Export Plug-In . SVG Version: 6.00 Build 0)  -->
<svg id="Layer_1" xmlns:rdf="http://www.w3.org/1999/02/22-rdf-syntax-ns#" xmlns="http://www.w3.org/2000/svg" enable-background="new 0 0 194.908 54" xml:space="preserve" height="54px" viewBox="0 0 194.908 54" width="194.91px" version="1.1" y="0px" x="0px" xmlns:cc="http://creativecommons.org/ns#" xmlns:dc="http://purl.org/dc/elements/1.1/"><metadata id="metadata43"></metadata><rect id="rect3" width="194.91" height="54"/><polygon id="polygon5" points="98.362,17.656,98.362,13.042,79.116,13.042,79.116,40.728,98.362,40.728,98.362,36.111,83.729,36.111,83.729,29.191,97.657,29.191,97.657,24.577,83.729,24.577,83.729,17.656" fill="#FFFFFF"/><polygon id="polygon7" points="112.64,40.728,112.64,13.044,117.26,13.044,117.26,36.111,130.57,36.111,130.57,40.728" fill="#FFFFFF"/><polygon id="polygon9" points="134.33,40.728,134.33,13.044,138.94,13.044,138.94,36.111,152.26,36.111,152.26,40.728" fill="#FFFFFF"/><rect id="rect11" height="27.684" width="4.612" y="13.044" x="103.21" fill="#FFFFFF"/><path id="path13" fill="#FFFFFF" d="M21.505,20.076c-1.777,1.784-2.87,4.221-2.872,6.936,0.002,2.715,1.095,5.151,2.872,6.932,1.781,1.778,4.219,2.873,6.934,2.874,2.715-0.001,5.15-1.096,6.933-2.874,1.778-1.78,2.87-4.217,2.87-6.932s-1.092-5.151-2.87-6.936c-1.782-1.775-4.218-2.866-6.933-2.868-2.715,0.002-5.153,1.093-6.934,2.868m-7.486,6.936c0.002-7.965,6.455-14.417,14.42-14.419,7.965,0.002,14.416,6.454,14.418,14.419-0.002,7.964-6.453,14.417-14.418,14.419-7.965-0.002-14.418-6.455-14.42-14.419"/><path id="path15" fill="#FFFFFF" d="M57.118,24.577v-6.921h9.295c1.91,0.002,3.459,1.549,3.461,3.462-0.002,1.908-1.551,3.455-3.461,3.459h-9.295zm11.611,4.273c3.328-1,5.758-4.077,5.759-7.731-0.001-4.461-3.614-8.073-8.075-8.074h-13.908v27.684h4.613v-11.537h6.428l6.96,11.535h5.382l-7.159-11.877z"/><path id="path17" fill="#FFFFFF" d="M49.234,15.989c0,1.875-1.521,3.396-3.396,3.396-1.877,0-3.397-1.521-3.397-3.396,0-1.876,1.521-3.396,3.397-3.396s3.396,1.52,3.396,3.396"/><polygon id="polygon19" points="172.82,13.044,167.22,13.044,160.12,23.321,153.02,13.044,147.41,13.044,157.8,28.096,157.8,40.728,162.42,40.728,162.42,28.106" fill="#FFFFFF"/><g id="g21" fill="#FFFFFF"><path id="path23" d="M178.4,18.735c-1.577,0-2.855-1.278-2.855-2.854,0-1.579,1.278-2.857,2.855-2.857,1.575,0,2.855,1.278,2.855,2.857-0.01,1.576-1.29,2.854-2.86,2.854m0-6.254c-1.878,0-3.401,1.521-3.401,3.4,0,1.876,1.523,3.399,3.401,3.399,1.876,0,3.399-1.523,3.399-3.399-0.01-1.878-1.53-3.4-3.4-3.4"/><path id="path25" d="M177.57,14.7h1.34c0.24,0,0.432,0.193,0.433,0.434-0.001,0.24-0.192,0.434-0.433,0.434h-1.34v-0.868zm2.35,0.434c0-0.56-0.451-1.011-1.01-1.011h-1.914v3.465h0.574v-1.443h0.972l0.694,1.443h0.642l-0.71-1.477c0.44-0.113,0.76-0.507,0.76-0.977"/></g></svg>
